<?xml version="1.0" standalone="no"?>
<!DOCTYPE svg PUBLIC "-//W3C//DTD SVG 20010904//EN"
 "http://www.w3.org/TR/2001/REC-SVG-20010904/DTD/svg10.dtd">
<svg version="1.0" xmlns="http://www.w3.org/2000/svg"
 width="4008.000000pt" height="942.000000pt" viewBox="0 0 4008.000000 942.000000"
 preserveAspectRatio="xMidYMid meet">

<g transform="translate(0.000000,942.000000) scale(0.100000,-0.100000)"
fill="#000000" stroke="none">
<path d="M7470 9260 l0 -160 -3735 0 -3735 0 0 -1955 0 -1955 300 0 300 0 0
1660 0 1660 3435 0 3435 0 0 -160 c0 -88 2 -160 4 -160 12 0 969 606 970 614
1 8 -957 616 -970 616 -2 0 -4 -72 -4 -160z"/>
<path d="M16250 7236 c-583 -68 -1094 -308 -1509 -711 -617 -598 -892 -1456
-736 -2298 127 -687 524 -1285 1115 -1678 122 -81 382 -212 524 -264 131 -48
371 -109 521 -131 148 -22 532 -26 670 -6 597 86 1095 331 1502 740 346 348
574 767 687 1265 l6 27 -545 0 c-429 0 -545 -3 -545 -12 0 -26 -112 -244 -165
-323 -219 -324 -558 -552 -948 -637 -87 -19 -132 -22 -307 -22 -172 0 -220 4
-302 22 -305 67 -545 198 -763 417 -221 220 -350 459 -417 769 -18 84 -22 133
-22 296 0 163 4 212 22 296 67 310 197 550 416 770 219 218 458 348 764 416
82 18 130 22 302 22 175 0 220 -3 307 -22 394 -86 738 -319 951 -644 31 -48
86 -141 122 -208 l65 -120 533 0 532 0 -6 28 c-114 499 -340 916 -690 1267
-394 396 -885 642 -1454 730 -144 22 -483 28 -630 11z"/>
<path d="M1640 7149 c-28 -51 -50 -99 -47 -109 2 -9 105 -192 229 -406 204
-352 1728 -2992 1922 -3329 l81 -140 112 -3 112 -3 -55 -95 -55 -95 238 -414
238 -414 115 0 115 0 238 414 238 414 -55 95 -55 96 112 0 112 1 422 732 c231
403 730 1268 1109 1922 378 655 691 1201 697 1215 8 22 2 39 -43 118 l-52 92
-482 0 -481 0 -735 -1272 c-404 -700 -825 -1429 -935 -1620 -110 -191 -202
-348 -205 -348 -3 0 -95 157 -205 348 -110 191 -531 920 -935 1620 l-735 1272
-481 0 -482 0 -52 -91z"/>
<path d="M8070 6720 l0 -510 2413 0 2412 1 238 414 238 414 -53 96 -53 95
-2597 0 -2598 0 0 -510z"/>
<path d="M19620 6720 l0 -510 1470 0 1470 0 0 -2040 0 -2040 595 0 595 0 0
2040 0 2040 1716 0 c1369 0 1714 -3 1708 -12 -4 -7 -33 -51 -65 -98 -276 -414
-421 -892 -421 -1395 -1 -334 52 -621 167 -920 125 -325 302 -599 550 -854
203 -209 397 -355 637 -481 396 -207 805 -300 1258 -287 594 17 1130 226 1584
617 468 403 760 945 858 1595 20 136 17 530 -5 675 -59 384 -192 733 -396
1042 -408 619 -1075 1032 -1811 1123 -110 13 -678 15 -5017 15 l-4893 0 0
-510z m9795 -545 c165 -27 309 -73 450 -146 617 -315 940 -993 799 -1676 -36
-177 -135 -402 -245 -558 -139 -197 -373 -392 -589 -494 -568 -266 -1236 -161
-1689 265 -239 225 -392 502 -458 829 -27 137 -25 444 5 582 133 618 612 1084
1227 1194 128 22 375 25 500 4z"/>
<path d="M34128 7223 l-1778 -3 0 -2550 0 -2550 590 0 590 0 2 950 3 950 1498
-950 1498 -950 909 2 908 3 -161 102 c-89 56 -1172 743 -2407 1526 l-2245
1424 -3 512 -2 512 1307 -4 c1386 -4 1394 -5 1593 -53 508 -125 917 -504 1085
-1006 87 -262 98 -565 30 -846 -13 -53 -27 -105 -30 -114 -7 -17 22 -18 528
-18 l535 0 11 63 c30 176 35 238 35 457 0 270 -13 383 -74 625 -83 333 -226
631 -438 915 -168 225 -464 493 -703 638 -414 250 -878 377 -1348 370 -86 -2
-956 -4 -1933 -5z"/>
<path d="M8070 4680 l0 -510 1234 0 1233 0 237 410 c130 225 236 414 236 420
0 5 -23 51 -51 100 l-51 90 -1419 0 -1419 0 0 -510z"/>
<path d="M39490 2580 l0 -1660 -3440 0 -3440 0 0 155 c0 85 -2 155 -5 155 -3
0 -224 -137 -491 -304 l-486 -305 69 -44 c180 -116 903 -567 908 -567 3 0 5
70 5 155 l0 155 3735 0 3735 0 0 1960 0 1960 -295 0 -295 0 0 -1660z"/>
<path d="M8070 2640 l0 -510 2300 0 2300 0 -17 34 c-10 18 -142 248 -293 510
l-275 476 -2007 0 -2008 0 0 -510z"/>
</g>
</svg>
