<?xml version="1.0" encoding="UTF-8"?>
<!DOCTYPE svg PUBLIC "-//W3C//DTD SVG 1.1//EN" "http://www.w3.org/Graphics/SVG/1.1/DTD/svg11.dtd">
<svg xmlns="http://www.w3.org/2000/svg" version="1.1" width="6007px" height="6134px" style="shape-rendering:geometricPrecision; text-rendering:geometricPrecision; image-rendering:optimizeQuality; fill-rule:evenodd; clip-rule:evenodd" xmlns:xlink="http://www.w3.org/1999/xlink">
<g><path style="opacity:0.994" fill="#f5002f" d="M 168.5,914.5 C 241.167,914.5 313.833,914.5 386.5,914.5C 386.667,2531.83 386.5,4149.17 386,5766.5C 313.982,5831.35 241.816,5896.02 169.5,5960.5C 168.5,4278.5 168.167,2596.5 168.5,914.5 Z"/></g>
<g><path style="opacity:0.999" fill="#101820" d="M 2976.5,3445.5 C 2395.83,3445.17 1815.17,3445.5 1234.5,3446.5C 1172.52,3819.07 1111.18,4191.74 1050.5,4564.5C 1237.5,4564.5 1424.5,4564.5 1611.5,4564.5C 1632.95,4431.79 1654.62,4299.13 1676.5,4166.5C 1840.83,4165.5 2005.17,4165.17 2169.5,4165.5C 1611.86,4664.3 1054.03,5162.97 496,5661.5C 495.5,4079.17 495.333,2496.83 495.5,914.5C 889.167,914.5 1282.83,914.5 1676.5,914.5C 1676.33,1617.17 1676.5,2319.83 1677,3022.5C 2462.83,2320 3248.67,1617.5 4034.5,915C 4625.5,914.333 5216.5,914.333 5807.5,915C 4863.34,1757.99 3919.67,2601.49 2976.5,3445.5 Z"/></g>
<g><path style="opacity:0.999" fill="#f5002f" d="M 2976.5,3445.5 C 3018.84,3445.17 3061.17,3445.5 3103.5,3446.5C 3085.88,3553.04 3068.22,3659.54 3050.5,3766C 2905.83,3766.5 2761.17,3766.67 2616.5,3766.5C 2325.33,3765.5 2034,3765.17 1742.5,3765.5C 1738.16,3792.17 1733.83,3818.84 1729.5,3845.5C 1995.83,3845.5 2262.17,3845.5 2528.5,3845.5C 2697.83,3845.5 2867.17,3845.5 3036.5,3845.5C 3019.6,3952.24 3002.27,4058.9 2984.5,4165.5C 2712.83,4165.5 2441.17,4165.5 2169.5,4165.5C 2005.17,4165.17 1840.83,4165.5 1676.5,4166.5C 1654.62,4299.13 1632.95,4431.79 1611.5,4564.5C 1424.5,4564.5 1237.5,4564.5 1050.5,4564.5C 1111.18,4191.74 1172.52,3819.07 1234.5,3446.5C 1815.17,3445.5 2395.83,3445.17 2976.5,3445.5 Z"/></g>
<g><path style="opacity:0.998" fill="#f5002f" d="M 3194.5,3445.5 C 3381.83,3445.5 3569.17,3445.5 3756.5,3445.5C 3695.27,3818.52 3633.94,4191.52 3572.5,4564.5C 3385.5,4564.5 3198.5,4564.5 3011.5,4564.5C 3072.39,4191.48 3133.39,3818.48 3194.5,3445.5 Z"/></g>
<g><path style="opacity:0.998" fill="#f5002f" d="M 3848.5,3445.5 C 4471.83,3445.17 5095.17,3445.5 5718.5,3446.5C 5687.44,3632.69 5656.44,3818.85 5625.5,4005C 5438.5,4005.5 5251.5,4005.67 5064.5,4005.5C 5077.26,3925.87 5090.59,3846.37 5104.5,3767C 5073.5,3766.5 5042.5,3766.33 5011.5,3766.5C 4968.05,4032.53 4924.38,4298.53 4880.5,4564.5C 4693.17,4564.67 4505.83,4564.5 4318.5,4564C 4362.44,4298.52 4406.44,4033.02 4450.5,3767.5C 4419.6,3766.17 4388.77,3766.17 4358,3767.5C 4344.51,3846.79 4331.34,3926.13 4318.5,4005.5C 4131.17,4005.5 3943.83,4005.5 3756.5,4005.5C 3787.38,3818.87 3818.05,3632.2 3848.5,3445.5 Z"/></g>
<g><path style="opacity:0.999" fill="#111820" d="M 2616.5,3766.5 C 2587.14,3792.86 2557.81,3819.2 2528.5,3845.5C 2262.17,3845.5 1995.83,3845.5 1729.5,3845.5C 1733.83,3818.84 1738.16,3792.17 1742.5,3765.5C 2034,3765.17 2325.33,3765.5 2616.5,3766.5 Z"/></g>
</svg>
