<svg xmlns="http://www.w3.org/2000/svg" height="317" preserveAspectRatio="xMidYMid" viewBox="0 0 256 317" width="256"><path d="m96.8988295 111.577478c-23.3745341-13.4952935-34.7705958-41.0078203-27.7849178-67.0787254 6.9856779-26.0709051 30.6112203-44.19942139 57.6018073-44.19942139s50.616129 18.12851629 57.601807 44.19942139-4.410383 53.5834319-27.784917 67.0787254l-17.95485-31.0987113c9.299081-5.3688268 13.832771-16.3141233 11.053662-26.6859002-2.779109-10.3717768-12.178048-17.5838365-22.915702-17.5838365-10.737653 0-20.136593 7.2120597-22.915702 17.5838365-2.779109 10.3717769 1.754581 21.3170734 11.053662 26.6859002z" fill="#ff0101"/><path d="m164.965719 237.292642c-23.374534-13.495294-34.770596-41.00782-27.784918-67.078725 6.985678-26.070906 30.611221-44.199422 57.601808-44.199422s50.616129 18.128516 57.601807 44.199422c6.985678 26.070905-4.410384 53.583431-27.784918 67.078725l-17.954849-31.098711c9.299081-5.368827 13.832771-16.314124 11.053662-26.6859-2.77911-10.371777-12.178049-17.583837-22.915702-17.583837-10.737654 0-20.136593 7.21206-22.915702 17.583837-2.779109 10.371776 1.754581 21.317073 11.053662 26.6859z" fill="#0101ff" transform="matrix(-1 0 0 -1 389.565218 363.307138)"/><path d="m119.56689 177.658863c0 26.990587-18.128517 50.616129-44.1994219 57.601807-26.0709051 6.985678-53.5834319-4.410383-67.07872541-27.784918-13.49529353-23.374534-9.6083091-52.899112 9.47691801-71.984339 19.0852272-19.085227 48.6098052-22.972211 71.9843392-9.476918l-17.9548493 31.098712c-9.2990807-5.368827-21.0448307-3.82247-28.6374983 3.770198-7.5926676 7.592667-9.139025 19.338417-3.7701982 28.637498 5.3688267 9.299081 16.3141233 13.832771 26.6859001 11.053662s17.5838365-12.178049 17.5838365-22.915702z" fill="#01ff01"/></svg>